<?xml version="1.0" standalone="no"?>
<!DOCTYPE svg PUBLIC "-//W3C//DTD SVG 20010904//EN"
 "http://www.w3.org/TR/2001/REC-SVG-20010904/DTD/svg10.dtd">
<svg version="1.0" xmlns="http://www.w3.org/2000/svg"
 width="245.000000pt" height="245.000000pt" viewBox="0 0 245.000000 245.000000"
 preserveAspectRatio="xMidYMid meet">
<metadata>
Created by potrace 1.14, written by Peter Selinger 2001-2017
</metadata>
<g transform="translate(0.000000,245.000000) scale(0.100000,-0.100000)"
fill="#000000" stroke="none">
<path d="M120 2410 l-75 -5 -2 -1182 -1 -1182 461 0 c695 0 1190 0 1212 0 92
1 473 1 485 0 70 -2 194 0 200 4 4 3 8 536 8 1185 l0 1179 -461 0 c-695 0
-1190 0 -1212 0 -11 0 -121 0 -244 0 -123 1 -226 -1 -228 -3 -2 -2 -18 -1 -36
3 -18 3 -66 4 -107 1z m2226 -63 c4 -4 6 -455 4 -1114 l-1 -252 -84 -3 c-47
-2 -85 -6 -85 -10 0 -5 0 -48 0 -98 l0 -89 82 2 c71 2 83 0 86 -15 3 -15 -8
-18 -83 -20 l-87 -3 0 -90 0 -90 79 -3 c43 -2 81 -6 85 -10 4 -4 7 -84 7 -177
0 -94 1 -195 1 -225 l1 -55 -1121 2 c-617 0 -1123 3 -1126 5 -3 4 -7 331 -4
435 0 21 4 22 86 22 48 0 88 1 89 3 4 4 7 80 6 136 l-1 42 -90 0 c-83 0 -90 1
-90 20 0 19 7 20 89 20 l90 0 3 84 c5 124 11 116 -92 116 l-89 0 -1 358 c-1
196 -1 366 -1 377 -1 99 -1 473 0 485 0 8 1 47 1 85 l0 70 1121 -2 c616 0
1123 -3 1125 -6z"/>
<path d="M1277 2142 l-28 -3 2 -95 3 -94 97 0 96 0 -1 97 -1 96 -70 2 c-38 0
-83 -1 -98 -3z"/>
<path d="M1010 1815 l0 -95 95 1 95 1 0 94 0 94 -95 0 -95 0 0 -95z"/>
<path d="M1251 1815 l-2 -96 98 3 98 3 3 93 3 92 -99 0 -99 0 -2 -95z"/>
<path d="M1485 1888 c-3 -13 -4 -54 -2 -93 l2 -70 98 -2 97 -3 0 95 0 95 -95
0 c-90 0 -95 -1 -100 -22z"/>
<path d="M1722 1818 l3 -93 90 0 90 0 3 93 3 92 -96 0 -96 0 3 -92z"/>
<path d="M1010 1588 l0 -98 95 1 95 1 1 31 c1 45 -2 152 -5 154 -1 1 -43 4
-94 5 l-92 3 0 -97z"/>
<path d="M1278 1682 l-28 -3 0 -95 0 -95 98 3 97 3 0 94 0 94 -70 2 c-38 0
-82 -1 -97 -3z"/>
<path d="M823 1452 l-43 -3 0 -103 0 -104 95 0 95 0 0 104 c0 92 -2 104 -17
105 -10 0 -34 1 -53 2 -19 1 -54 1 -77 -1z"/>
<path d="M1010 1347 l0 -107 95 2 95 2 0 103 0 103 -42 1 c-24 0 -67 1 -96 2
l-52 2 0 -108z"/>
<path d="M1278 1452 l-27 -3 2 -100 c2 -79 5 -99 17 -101 8 -1 52 -2 98 -2
l82 -1 0 95 c0 52 -4 100 -8 105 -7 10 -111 14 -164 7z"/>
<path d="M1494 1453 c-12 -4 -10 -190 1 -202 4 -3 46 -6 93 -6 l87 0 0 105 0
105 -85 1 c-47 1 -90 -1 -96 -3z"/>
<path d="M1338 1193 c-51 -3 -79 -8 -80 -16 -1 -7 -2 -45 -2 -84 l-1 -73 98 0
97 0 0 84 c0 67 -3 85 -16 90 -9 3 -16 5 -17 4 -1 -1 -37 -4 -79 -5z"/>
<path d="M1513 1192 c-24 -3 -25 -8 -25 -102 0 -76 -8 -70 97 -70 l96 0 -3 87
-3 87 -70 1 c-38 0 -80 -1 -92 -3z"/>
<path d="M780 1106 l0 -85 85 -3 c47 -2 90 -1 95 0 6 2 10 42 10 88 l0 84 -95
0 -95 0 0 -84z"/>
<path d="M1010 1105 l0 -85 95 0 95 0 0 85 0 85 -95 0 -95 0 0 -85z"/>
<path d="M320 880 l0 -100 100 0 100 0 0 100 0 100 -100 0 -100 0 0 -100z"/>
<path d="M559 960 c0 -11 -1 -36 -1 -55 0 -19 1 -55 1 -80 l1 -45 89 0 90 0 3
84 c5 124 11 116 -93 116 -82 0 -89 -2 -90 -20z"/>
<path d="M1722 883 l3 -98 93 -3 92 -3 0 100 0 101 -95 0 -96 0 3 -97z"/>
<path d="M1949 976 c-2 -2 -3 -47 -1 -99 l3 -94 95 0 94 0 0 98 0 99 -93 0
c-52 0 -96 -2 -98 -4z"/>
<path d="M565 740 c-2 -3 -5 -44 -6 -90 l-2 -85 49 -5 c27 -3 68 -3 91 -2 l41
4 4 46 c1 26 1 67 -2 92 l-5 45 -83 0 c-46 0 -85 -2 -87 -5z"/>
<path d="M873 742 l-93 -3 0 -89 0 -89 86 -3 c47 -2 90 0 96 3 8 5 14 179 6
183 -2 0 -45 0 -95 -2z"/>
<path d="M1010 653 l0 -93 95 0 95 0 1 43 c1 51 -2 131 -5 134 -1 2 -44 4 -94
5 l-92 3 0 -92z"/>
<path d="M1288 742 l-28 -3 0 -90 0 -89 95 0 95 0 0 93 0 93 -67 -1 c-38 0
-80 -1 -95 -3z"/>
<path d="M1500 743 c-12 -3 -15 -20 -13 -91 l1 -87 95 -3 95 -3 4 53 c1 29 2
71 0 93 l-3 41 -82 0 c-45 0 -89 -1 -97 -3z"/>
<path d="M1725 741 c-3 -2 -5 -44 -5 -93 l0 -88 95 0 95 0 0 89 c0 77 -3 90
-17 95 -21 6 -162 4 -168 -3z"/>
<path d="M1950 744 c-1 -2 -1 -43 -1 -91 l-1 -88 96 -3 96 -3 0 95 0 96 -95
-1 c-52 0 -95 -2 -95 -5z"/>
<path d="M320 650 l0 -90 100 0 100 0 0 90 0 90 -100 0 -100 0 0 -90z"/>
<path d="M320 425 l0 -95 100 0 100 0 0 95 0 95 -100 0 -100 0 0 -95z"/>
<path d="M560 426 l0 -94 48 -4 c26 -1 66 -2 90 0 l42 3 0 95 0 94 -90 0 -90
0 0 -94z"/>
<path d="M780 426 l0 -95 85 -3 c47 -2 90 -1 95 0 6 2 10 45 10 98 l0 94 -95
0 -95 0 0 -94z"/>
<path d="M1010 425 l0 -95 95 0 95 0 1 28 c4 96 4 139 1 150 -3 8 -32 12 -98
12 l-94 0 0 -95z"/>
<path d="M1257 428 l1 -93 96 -3 96 -3 0 96 0 95 -97 0 -98 0 2 -92z"/>
<path d="M1490 425 l0 -95 95 0 95 0 0 95 0 95 -95 0 -95 0 0 -95z"/>
<path d="M1720 425 l0 -95 95 0 95 0 0 95 0 95 -95 0 -95 0 0 -95z"/>
<path d="M1950 425 l0 -95 95 0 95 0 0 95 0 95 -95 0 -95 0 0 -95z"/>
</g>
</svg>
